<svg xmlns="http://www.w3.org/2000/svg" xmlns:xlink="http://www.w3.org/1999/xlink" version="1.1" id="Layer_1" x="0px" y="0px" enable-background="new 0 0 1024 1024" xml:space="preserve" viewBox="140.69 183.23 740.76 591.3">

	<defs>
		<!-- Cloud gradient: navy (left) to teal (right) -->
		<linearGradient id="cloudGradient" x1="0%" y1="0%" x2="100%" y2="0%">
			<stop offset="0%" stop-color="#002040"/>
			<stop offset="55%" stop-color="#002848"/>
			<stop offset="100%" stop-color="#00A0B8"/>
		</linearGradient>
	</defs>

	<!-- Cloud icon -->
	<path fill="url(#cloudGradient)" opacity="1.000000" stroke="none" d=" M601.982666,223.003571   C619.981995,239.059616 633.246826,257.997406 641.449402,280.317261   C643.015747,284.579498 645.451904,286.184052 649.730042,286.640411   C704.382996,292.469727 742.862427,320.951385 761.818848,372.192139   C778.136414,416.299713 769.589661,457.935974 739.469788,494.282135   C718.294495,519.834717 690.671936,534.639038 657.736450,538.949402   C649.354919,540.046326 640.775574,539.844116 632.286011,539.868286   C577.129333,540.025146 521.972229,540.086426 466.815277,540.140442   C464.888580,540.142334 462.841888,540.653992 460.810242,539.351501   C460.976807,537.031250 463.050049,536.210083 464.441162,535.019958   C487.360199,515.412048 509.972198,495.461731 531.644897,474.476471   C534.098389,472.100769 536.680664,471.679962 539.770813,471.683472   C574.264832,471.722473 608.758972,471.734222 643.252930,471.692535   C671.581787,471.658325 693.685364,453.776947 699.759399,426.082001   C706.420227,395.711487 688.073975,364.751099 658.060974,356.349121   C637.784973,350.672974 619.541687,354.377808 604.095825,369.403534   C581.745911,391.145447 561.597229,414.957977 539.955444,437.369812   C512.138428,466.176605 483.838654,494.468658 450.341095,516.751831   C410.562408,543.213196 367.503998,549.937744 322.894470,531.933838   C279.094910,514.256897 251.905396,481.278656 244.984253,433.933197   C238.264664,387.966370 259.398834,344.292969 298.647736,322.095398   C309.942596,315.707458 322.014313,311.610138 335.021393,310.674255   C339.449371,310.355621 341.704041,308.411469 342.899353,303.955170   C359.947327,240.395645 401.745239,201.731979 464.971344,187.393814   C515.878357,175.849335 561.939819,188.529343 601.982666,223.003571  M409.683746,324.114197   C408.193390,333.356995 407.716187,342.573883 409.207123,351.913849   C409.993774,356.841980 410.989899,361.694977 412.036255,366.564697   C414.066803,376.015015 407.939392,381.467407 398.685333,378.618835   C395.982208,377.786774 393.337036,376.768585 390.650208,375.881348   C379.147919,372.083099 367.475677,369.599640 355.359558,372.399536   C318.765930,380.856018 306.807373,412.273041 317.529572,440.475189   C327.603516,466.972137 352.725769,475.434052 379.439972,472.225800   C398.613708,469.923157 414.649902,460.540802 429.448242,448.795807   C466.382568,419.482117 498.434113,385.105621 530.843079,351.078247   C545.067322,336.143707 558.329895,320.154724 575.166626,307.908264   C578.604858,305.407379 577.462402,302.953308 576.190857,300.128235   C560.487061,265.238129 525.809875,246.365784 486.840332,250.651871   C447.550049,254.973251 416.983734,284.595093 409.683746,324.114197  z"/>

	<!-- All text/other elements in navy -->
	<path fill="#002040" opacity="1.000000" stroke="none" d=" M289.601868,602.614990   C300.415283,625.832458 291.661407,650.450439 269.352661,660.419800   C247.159409,670.337585 220.767151,660.561218 211.176254,638.869751   C199.048462,611.440796 218.971268,580.915283 248.979065,580.607483   C266.576324,580.427063 280.339355,586.845459 289.601868,602.614990  M268.976562,638.441345   C273.432465,633.023560 275.108704,626.798645 274.693268,619.838013   C274.088531,609.705627 267.317963,601.555420 256.987122,598.822021   C247.133911,596.214966 236.359497,600.288147 231.188538,608.574768   C224.552475,619.209229 226.653885,633.769836 235.900116,641.221130   C245.794479,649.194824 258.526764,648.316589 268.976562,638.441345  z"/>

	<path fill="#002040" opacity="1.000000" stroke="none" d=" M457.603394,711.750610   C474.179138,688.721985 504.613525,684.653198 524.610596,702.711853   C536.867371,713.780518 540.564697,727.820312 536.510254,743.534241   C532.347351,759.668762 521.312256,769.647217 505.282318,773.182678   C482.481018,778.211487 461.523041,767.409180 454.326813,747.575317   C449.887573,735.340210 450.699280,723.408325 457.603394,711.750610  M481.937805,712.334351   C472.424042,719.314331 468.605347,730.315674 472.023743,740.896240   C476.098724,753.509155 489.359100,760.055847 502.649872,756.016479   C514.947083,752.279053 521.911926,738.438293 518.046631,725.419556   C513.739929,710.914185 497.732849,704.845581 481.937805,712.334351  z"/>

	<path fill="#002040" opacity="1.000000" stroke="none" d=" M637.317993,693.013550   C650.231140,692.880371 662.737854,691.632385 675.134338,693.628174   C696.294861,697.034973 709.089905,711.480774 709.703552,732.345215   C710.280579,751.967957 697.198792,768.085144 676.795776,772.212524   C664.300110,774.740234 651.572571,772.939697 638.953186,773.226746   C635.422180,773.307007 635.732910,770.555481 635.726257,768.240540   C635.695679,757.586853 635.703186,746.932922 635.699158,736.279114   C635.694519,723.794189 635.664246,711.309082 635.717896,698.824402   C635.726135,696.903320 635.135254,694.777954 637.317993,693.013550  M654.339661,712.957581   C654.334473,725.950073 654.335693,738.942505 654.318542,751.934998   C654.315308,754.369324 654.208435,756.751038 657.751404,756.676147   C663.063416,756.563782 668.384766,757.006775 673.632690,755.595520   C684.631470,752.637878 691.034058,743.777344 690.721558,731.709839   C690.439331,720.814270 683.429626,712.592590 672.668701,710.182983   C667.707397,709.071960 662.730347,709.449036 657.749573,709.344666   C655.872253,709.305359 654.451904,709.873230 654.339661,712.957581  z"/>

	<path fill="#002040" opacity="1.000000" stroke="none" d=" M487.356689,633.462158   C487.328278,641.907715 487.233887,649.902893 487.342865,657.895325   C487.385620,661.033447 486.300568,662.446594 483.021637,662.384338   C465.350800,662.049072 468.902374,664.853699 468.720398,649.013367   C468.485138,628.531128 468.780243,608.042969 468.581604,587.559937   C468.537842,583.046570 469.837128,581.508850 474.478851,581.561584   C487.329987,581.707520 487.330658,581.513123 487.331421,594.538452   C487.331696,599.534790 487.440918,604.533752 487.308228,609.526428   C487.229340,612.494385 488.319244,613.724548 491.371368,613.685120   C500.196716,613.571228 509.025421,613.577576 517.850891,613.689331   C520.816650,613.726868 522.162476,612.561829 522.147461,609.617737   C522.109192,602.133423 522.252136,594.645508 522.060669,587.165710   C521.957886,583.149658 523.342224,581.641052 527.531677,581.607849   C541.008667,581.501221 541.000610,581.349548 540.998047,594.986267   C540.994324,615.138123 541.022949,635.290100 540.992126,655.441895   C540.981506,662.351868 540.918823,662.366089 534.007507,662.359314   C530.844788,662.356201 527.681702,662.302673 524.520081,662.221863   C524.061035,662.210083 523.609070,661.917297 522.604492,661.558167   C522.604492,653.249512 522.611877,644.803467 522.602051,636.357422   C522.594788,630.126526 522.502136,630.029297 516.107422,630.023926   C508.113312,630.017273 500.119171,630.027161 492.125153,630.061768   C489.971344,630.071045 487.562927,629.785767 487.356689,633.462158  z"/>

	<path fill="#002040" opacity="1.000000" stroke="none" d=" M662.077148,662.368286   C659.148438,662.194519 656.629028,662.828735 654.290710,661.923035   C653.233704,660.521301 653.936646,659.309387 654.408203,658.087280   C663.696289,634.017151 673.037903,609.967285 682.208618,585.852478   C683.417114,582.674744 685.134033,581.220825 688.471436,581.664673   C689.126099,581.751648 689.802612,581.674683 690.469055,581.673279   C704.637024,581.643982 704.699219,581.619690 709.787781,594.639709   C717.785522,615.103455 725.696228,635.601196 733.621704,656.093140   C734.269226,657.767273 735.212341,659.404297 734.731628,661.947021   C729.136841,662.753723 723.382446,662.512146 717.670593,662.077698   C715.240601,661.892822 715.202209,659.236206 714.481445,657.458374   C709.514343,645.206421 712.623840,647.576904 699.838684,647.340698   C693.842773,647.229919 687.839600,647.443726 681.846558,647.270996   C678.855042,647.184753 677.121643,648.329590 676.334595,651.140564   C676.110962,651.939331 675.766968,652.705139 675.467224,653.481812   C672.044434,662.349548 672.043823,662.349304 662.077148,662.368286  M703.747620,628.338379   C700.690125,619.938782 697.632568,611.539185 694.089111,601.804626   C690.197388,612.557312 686.892639,621.688293 683.307495,631.593811   C690.189331,631.593811 696.123108,631.610840 702.056763,631.583008   C703.737976,631.575134 704.538147,630.786560 703.747620,628.338379  z"/>

	<path fill="#002040" opacity="1.000000" stroke="none" d=" M357.650574,602.000244   C357.658264,596.171936 357.734894,590.842346 357.645844,585.515564   C357.599792,582.759949 358.763733,581.831848 361.488770,581.639587   C376.320923,580.593323 376.495422,580.533142 376.268768,595.049133   C376.055908,608.679138 377.420044,622.357544 375.440338,635.935791   C372.050262,659.187256 351.671600,666.402588 335.743042,663.790649   C316.391815,660.617432 306.561432,649.089355 305.872681,628.645020   C305.396362,614.506592 305.814880,600.339783 305.647614,586.187866   C305.605286,582.608582 307.082642,581.709900 310.395142,581.619873   C324.335907,581.241211 324.331085,581.155945 324.332886,594.899719   C324.334320,606.056213 324.254883,617.213684 324.374878,628.368958   C324.476837,637.845886 328.406738,644.407898 334.921051,646.503662   C347.514893,650.555298 357.308716,643.293701 357.606964,629.474915   C357.800964,620.487183 357.648224,611.492004 357.650574,602.000244  z"/>

	<path fill="#002040" opacity="1.000000" stroke="none" d=" M611.115906,630.036987   C603.321899,630.040405 603.281189,630.040588 603.311829,637.472961   C603.353943,647.687378 602.143860,646.596497 612.289429,646.644653   C620.287659,646.682617 628.288452,646.774292 636.283508,646.612915   C639.778992,646.542419 641.452942,647.474915 641.377441,651.353821   C641.120178,664.566833 642.513000,662.191040 630.581543,662.320801   C617.252380,662.465820 603.918701,662.243896 590.591003,662.447021   C586.426575,662.510437 584.658936,661.489075 584.700378,656.897339   C584.909668,633.737122 584.888000,610.573730 584.754578,587.412476   C584.730347,583.207520 585.848633,581.494995 590.388855,581.571045   C605.215149,581.819458 620.049377,581.775696 634.877563,581.594604   C638.911926,581.545349 640.496948,582.707947 640.381653,586.944092   C640.015076,600.408447 641.828186,598.117859 628.925415,598.307129   C621.928284,598.409790 614.925537,598.445007 607.931152,598.273682   C604.491211,598.189453 603.292603,599.420898 603.247681,602.906982   C603.118103,612.967957 602.982971,613.002686 612.850769,613.116821   C618.675903,613.184204 624.504822,613.208069 630.327820,613.070801   C633.816895,612.988464 635.468567,614.095947 635.391418,617.934082   C635.104736,632.188232 636.954895,629.757080 623.594055,630.028381   C619.596436,630.109619 615.595825,630.039246 611.115906,630.036987  z"/>

	<path fill="#002040" opacity="1.000000" stroke="none" d=" M549.076172,734.847107   C548.687744,722.392639 550.139587,710.420349 549.087524,698.446777   C548.731567,694.395813 550.064697,692.520691 554.664429,692.563904   C567.384949,692.683289 567.381348,692.479126 567.369263,705.213684   C567.358398,716.698975 567.212280,728.186646 567.396545,739.668945   C567.621033,753.658203 578.971069,761.471558 591.593567,756.521423   C599.297485,753.500122 601.461548,746.975830 601.583923,739.639526   C601.814331,725.827698 601.819641,712.006287 601.562378,698.195496   C601.478638,693.699890 603.055054,692.554260 607.325928,692.583008   C619.857422,692.667542 619.982422,692.504028 619.905579,704.867249   C619.823914,718.004333 620.572510,731.145813 619.407959,744.280762   C617.874512,761.576599 604.735168,774.059204 587.389954,774.367615   C582.905396,774.447388 578.452942,774.429321 574.006409,773.374451   C559.990967,770.049500 550.641846,759.183472 549.676697,744.787048   C549.465332,741.634949 549.274170,738.481445 549.076172,734.847107  z"/>

	<path fill="#002040" opacity="1.000000" stroke="none" d=" M164.565216,581.038269   C175.006042,579.934448 184.539841,581.389282 193.505997,586.165955   C196.701004,587.868103 198.082794,589.764587 195.690338,593.194824   C193.606415,596.182800 193.176376,600.825378 190.079224,602.395935   C186.767731,604.075012 184.143326,599.685669 180.862015,598.682251   C175.731827,597.113525 170.692200,595.393738 165.294083,597.340027   C162.394821,598.385254 159.703445,599.648010 159.301514,603.241150   C158.894577,606.878967 161.133438,608.897339 163.993668,610.118103   C167.958664,611.810425 172.059769,613.212646 176.170151,614.528076   C180.942352,616.055237 185.626724,617.759033 189.904678,620.392090   C202.733368,628.288147 204.026199,646.606384 192.355515,656.151428   C177.866226,668.001648 156.967239,665.632507 142.993484,655.824829   C140.661209,654.187744 140.372406,652.312500 141.973923,649.874451   C143.973129,646.830811 145.010986,642.485840 147.755539,640.775879   C150.990707,638.760376 153.516678,643.525940 156.697739,644.690369   C162.543015,646.830200 168.303040,649.022522 174.578201,646.687561   C177.834366,645.476013 180.569244,643.630310 180.850845,639.714722   C181.140732,635.683899 178.574051,633.588501 175.309341,632.314270   C168.962051,629.836914 162.441711,627.789185 156.153580,625.177124   C143.679398,619.995300 138.123703,608.925903 141.823425,597.108521   C143.380661,592.134521 146.428024,588.356567 151.022736,585.783203   C155.139496,583.477600 159.522156,582.015381 164.565216,581.038269  z"/>

	<path fill="#002040" opacity="1.000000" stroke="none" d=" M764.974182,607.933228   C768.905273,610.990356 773.276123,612.173767 777.562439,613.490173   C782.509216,615.009216 787.392334,616.666382 791.909180,619.220825   C805.266174,626.774292 807.586609,644.282715 796.419434,654.864502   C781.883057,668.638794 758.716309,666.020874 744.845764,655.221863   C742.866333,653.680786 743.178345,652.079407 744.411743,650.494019   C747.049072,647.103943 747.119446,641.730713 752.035217,640.226318   C752.879211,639.968018 754.265137,641.466980 755.395935,642.162048   C760.866516,645.524536 766.586304,648.017090 773.223022,647.699097   C775.615845,647.584534 777.848877,647.042419 779.895935,645.878357   C782.435059,644.434570 784.624817,642.582642 784.612549,639.339966   C784.600403,636.138184 782.582336,634.151855 779.970642,632.745422   C773.775452,629.409302 766.846741,627.979858 760.390015,625.296082   C748.571106,620.383545 743.538513,611.631897 745.635742,599.168274   C746.900269,591.653748 751.858032,587.133240 758.396301,584.306641   C772.356995,578.271240 785.965149,579.669861 799.194214,586.834900   C801.617188,588.147278 802.322571,589.634583 800.702698,591.979187   C800.515076,592.250671 800.409424,592.577271 800.245300,592.866699   C798.523376,595.903625 797.477295,599.890320 794.899475,601.731384   C791.701416,604.015381 788.854980,599.649109 785.610291,598.774475   C779.628723,597.162109 773.794922,595.059021 767.674255,598.056091   C763.066284,600.312378 762.273926,602.860962 764.974182,607.933228  z"/>

	<path fill="#002040" opacity="1.000000" stroke="none" d=" M368.703247,751.810059   C369.411377,751.337585 369.872955,750.785583 370.244781,750.840576   C376.060455,751.700684 376.023529,757.660583 378.944519,761.061584   C380.726685,763.136536 378.744171,764.704529 377.115753,765.940308   C367.268127,773.413513 356.011963,775.817505 344.073517,773.906372   C325.096649,770.868530 313.224335,759.303589 309.223328,740.929871   C305.816772,725.285950 312.491791,708.797729 326.018463,699.443787   C340.361053,689.525635 360.163269,689.095703 374.629333,698.176941   C378.474030,700.590393 380.412048,702.904541 376.957550,707.137329   C374.988831,709.549622 374.379547,712.884460 372.104736,715.188110   C369.617889,715.341187 368.130646,713.507507 366.299316,712.499207   C348.711243,702.815979 328.007812,713.199829 327.360413,732.063599   C326.686340,751.704712 346.575775,763.633057 364.603729,754.379883   C365.929810,753.699280 367.147125,752.806824 368.703247,751.810059  z"/>

	<path fill="#002040" opacity="1.000000" stroke="none" d=" M878.780518,581.788452   C882.415649,582.974304 881.293335,585.727905 881.285278,587.811584   C881.238586,599.881165 882.762512,598.161011 871.153748,598.319519   C868.158813,598.360413 865.131348,598.598755 862.174316,598.260864   C857.176880,597.689697 856.013977,599.890808 856.079041,604.540344   C856.316589,621.511597 856.197937,638.488098 856.185974,655.462585   C856.181152,662.326172 856.147766,662.418640 849.245300,662.337769   C835.766113,662.179993 837.798157,664.178467 837.696716,650.667969   C837.579285,635.025635 837.560425,619.380554 837.741699,603.739441   C837.788574,599.695679 836.641479,598.014404 832.394470,598.254089   C827.086365,598.553528 821.745544,598.219299 816.423584,598.350647   C813.264404,598.428589 811.832581,597.190125 811.866150,593.989136   C812.023010,579.035522 810.545288,581.788086 823.386719,581.697632   C841.691162,581.568604 859.997498,581.705627 878.780518,581.788452  z"/>

	<path fill="#002040" opacity="1.000000" stroke="none" d=" M431.322205,622.000122   C431.313812,634.148682 431.213409,645.798279 431.350616,657.445068   C431.393127,661.054321 430.179901,662.370178 426.468750,662.442017   C412.657349,662.709351 412.659363,662.824341 412.653534,648.996704   C412.647217,634.020020 412.517517,619.041626 412.713226,604.067627   C412.769562,599.755859 411.413940,598.018677 407.005249,598.264221   C402.028687,598.541260 397.023254,598.254395 392.032654,598.342041   C389.189362,598.391968 387.682556,597.399292 387.705170,594.333130   C387.820221,578.710449 386.037994,581.857666 399.230896,581.708740   C416.368713,581.515259 433.511749,581.780945 450.649506,581.584595   C454.922028,581.535706 456.545898,582.695557 456.401672,587.193481   C455.978729,600.383545 457.925385,598.086914 445.290924,598.321594   C442.296661,598.377258 439.283539,598.526794 436.309174,598.276245   C432.260223,597.935120 431.103027,599.715332 431.257324,603.530701   C431.499237,609.511536 431.321686,615.509460 431.322205,622.000122  z"/>

	<path fill="#002040" opacity="1.000000" stroke="none" d=" M403.058289,773.322693   C394.681580,773.279419 394.672577,773.279419 394.669800,765.485840   C394.661835,743.182434 394.768097,720.878174 394.570251,698.576477   C394.530121,694.050842 395.850769,692.528015 400.475433,692.573608   C413.197449,692.698853 413.207489,692.507141 413.214447,705.159851   C413.222839,720.472595 413.353180,735.787415 413.128540,751.096863   C413.064117,755.484619 414.440948,756.933838 418.835632,756.768982   C426.979828,756.463562 435.145752,756.788696 443.298553,756.635071   C446.800690,756.569092 448.455353,757.569031 448.378113,761.412842   C448.092041,775.652527 449.848999,773.132446 437.003754,773.302002   C425.854065,773.449219 414.700745,773.326355 403.058289,773.322693  z"/>
</svg>